<?xml version="1.0" standalone="no"?>
<!DOCTYPE svg PUBLIC "-//W3C//DTD SVG 20010904//EN"
 "http://www.w3.org/TR/2001/REC-SVG-20010904/DTD/svg10.dtd">
<svg version="1.0" xmlns="http://www.w3.org/2000/svg"
 width="800.000000pt" height="800.000000pt" viewBox="0 0 800.000000 800.000000"
 preserveAspectRatio="xMidYMid meet">

<g transform="translate(0.000000,800.000000) scale(0.100000,-0.100000)"
fill="#000000" stroke="none">
<path d="M3795 5933 c-224 -28 -498 -109 -685 -203 -489 -245 -794 -577 -955
-1042 -43 -122 -85 -326 -85 -409 0 -234 213 -292 714 -193 240 48 584 155
1187 370 962 342 1631 522 2162 579 224 24 348 -1 355 -71 6 -63 -117 -181
-328 -314 -177 -111 -185 -117 -210 -163 -49 -86 -21 -196 63 -254 33 -23 51
-28 101 -28 59 0 70 5 306 129 478 252 818 475 1000 657 91 91 120 133 144
204 31 89 -6 141 -128 182 -80 27 -86 28 -331 28 -260 0 -265 -1 -635 -61
-282 -46 -551 -103 -779 -164 -109 -29 -111 -29 -169 44 -68 83 -233 242 -325
310 -294 221 -642 361 -986 395 -97 10 -349 13 -416 4z"/>
<path d="M5495 4123 c-281 -38 -743 -171 -1345 -388 -455 -164 -937 -322
-1221 -399 -52 -14 -134 -37 -184 -51 -171 -47 -369 -94 -525 -124 -303 -58
-458 -76 -590 -69 -144 9 -186 49 -139 136 37 70 205 199 428 328 153 89 182
138 126 214 -33 45 -44 51 -80 44 -73 -16 -596 -294 -859 -458 -415 -258 -645
-471 -670 -617 -12 -69 70 -142 189 -170 91 -20 318 -23 485 -5 366 40 570 75
1014 177 142 32 269 59 283 59 18 0 67 -44 196 -173 197 -198 293 -271 498
-376 341 -176 645 -243 999 -220 172 11 243 22 407 65 419 108 816 349 1064
644 240 286 392 708 393 1095 1 107 -2 125 -23 168 -45 92 -133 128 -305 126
-61 -1 -124 -4 -141 -6z"/>
</g>
</svg>
